<svg xmlns="http://www.w3.org/2000/svg" version="1.1" xmlns:xlink="http://www.w3.org/1999/xlink" xmlns:svgjs="http://svgjs.dev/svgjs" width="2000" height="1247" viewBox="0 0 2000 1247"><g transform="matrix(1,0,0,1,-1.2121212121212466,107.30024704535208)"><svg viewBox="0 0 396 247" data-background-color="#ffffff" preserveAspectRatio="xMidYMid meet" height="1247" width="2000" xmlns="http://www.w3.org/2000/svg" xmlns:xlink="http://www.w3.org/1999/xlink"><g id="tight-bounds" transform="matrix(1,0,0,1,0.2400000000000091,-0.09999999999999432)"><svg viewBox="0 0 395.52 247.2" height="247.2" width="395.52"><g><svg></svg></g><g><svg viewBox="0 0 395.52 247.2" height="247.2" width="395.52"><g transform="matrix(1,0,0,1,75.54432000000001,103.59652751055911)"><svg viewBox="0 0 244.43135999999996 40.00694497888177" height="40.00694497888177" width="244.43135999999996"><g><svg viewBox="0 0 244.43135999999996 40.00694497888177" height="40.00694497888177" width="244.43135999999996"><g><svg viewBox="0 0 244.43136 40.006944978881776" height="40.00694497888177" width="244.43135999999996"><g><svg viewBox="0 0 244.43136 40.006944978881776" height="40.006944978881776" width="244.43136"><g id="textblocktransform"><svg viewBox="0 0 244.43136 40.006944978881776" height="40.006944978881776" width="244.43136" id="textblock"><g><svg viewBox="0 0 244.43136 21.57783444631276" height="21.57783444631276" width="244.43136"><g transform="matrix(1,0,0,1,0,0)"><svg width="244.43136" viewBox="1 -36.3 416.26 36.75" height="21.57783444631276" data-palette-color="#65ff54"><path d="M5.85 0.2L5.85 0.2Q4.05 0.2 2.65-1.38 1.25-2.95 1.25-6.3L1.25-6.3Q1.25-8.65 1.88-11 2.5-13.35 3.15-15.3L3.15-15.3Q4.15-18.5 4.9-21.2 5.65-23.9 5.65-26.35L5.65-26.35Q5.65-28.05 5.28-28.7 4.9-29.35 4.3-29.35L4.3-29.35Q3.65-29.35 2.88-28.65 2.1-27.95 1.35-26.5L1.35-26.5 1-26.6Q1.1-29.5 2.25-31.6 3.4-33.7 5.15-34.85 6.9-36 8.75-36L8.75-36Q10.85-36 12.35-34.33 13.85-32.65 13.85-28.55L13.85-28.55Q13.85-26.4 13.43-24.05 13-21.7 12.45-19.35L12.45-19.35Q14.15-20.05 16.05-20.35 17.95-20.65 20.1-20.65L20.1-20.65 21.4-20.65Q22.05-23.15 22.53-25.58 23-28 23-30.1L23-30.1Q23-30.85 22.93-31.5 22.85-32.15 22.75-32.75L22.75-32.75 22.75-33.15Q23.5-34.5 24.93-35.3 26.35-36.1 27.8-36.1L27.8-36.1Q29.45-36.1 30.7-35.02 31.95-33.95 31.95-31.6L31.95-31.6Q31.95-29.85 31.28-27.1 30.6-24.35 29.75-21.45L29.75-21.45Q28.75-17.9 27.93-14.58 27.1-11.25 27.1-8.95L27.1-8.95Q27.1-7.4 27.6-6.5 28.1-5.6 29.2-5.6L29.2-5.6Q30.7-5.6 31.45-7.05L31.45-7.05 31.75-6.9Q31.7-4.8 30.6-3.2 29.5-1.6 27.88-0.7 26.25 0.2 24.55 0.2L24.55 0.2Q23.05 0.2 21.73-0.58 20.4-1.35 19.58-3 18.75-4.65 18.75-7.3L18.75-7.3Q18.75-9.05 19.13-11.13 19.5-13.2 20-15.35L20-15.35Q17.7-15.5 15.5-15.5L15.5-15.5Q14.4-15.5 13.4-15.45 12.4-15.4 11.5-15.3L11.5-15.3Q11.05-13.3 10.73-11.38 10.4-9.45 10.4-7.65L10.4-7.65Q10.4-6.65 10.53-5.68 10.65-4.7 10.95-3.8L10.95-3.8Q10.15-1.85 8.72-0.83 7.3 0.2 5.85 0.2ZM43.6-26.75L43.6-26.75Q41.6-26.75 40.32-27.98 39.05-29.2 39.05-31.05L39.05-31.05Q39.05-33.05 40.55-34.5 42.05-35.95 44.2-35.95L44.2-35.95Q46.2-35.95 47.47-34.7 48.75-33.45 48.75-31.6L48.75-31.6Q48.75-29.6 47.25-28.18 45.75-26.75 43.6-26.75ZM40.1 0.2L40.1 0.2Q38.15 0.2 36.6-1.18 35.05-2.55 35.05-5.6L35.05-5.6Q35.05-7.35 35.52-8.88 36-10.4 36.62-11.85 37.25-13.3 37.72-14.68 38.2-16.05 38.2-17.4L38.2-17.4Q38.2-18.6 37.8-19.13 37.4-19.65 36.85-19.65L36.85-19.65Q36-19.65 35.2-18.55L35.2-18.55 34.85-18.75Q35.05-20.75 36.12-22.18 37.2-23.6 38.77-24.4 40.35-25.2 41.9-25.2L41.9-25.2Q43.8-25.2 45.2-23.98 46.6-22.75 46.6-20L46.6-20Q46.6-18.35 46.12-16.53 45.65-14.7 45.02-12.9 44.4-11.1 43.92-9.55 43.45-8 43.45-6.9L43.45-6.9Q43.45-5.95 43.82-5.55 44.2-5.15 44.65-5.15L44.65-5.15Q45.1-5.15 45.52-5.43 45.95-5.7 46.15-6.05L46.15-6.05 46.5-5.95Q46.5-4.1 45.52-2.73 44.55-1.35 43.1-0.58 41.65 0.2 40.1 0.2ZM55.85 0.2L55.85 0.2Q54.05 0.2 52.62-1.28 51.2-2.75 51.2-5.35L51.2-5.35Q51.2-6.65 51.55-8.33 51.9-10 52.32-11.75 52.75-13.5 53.1-15.05 53.45-16.6 53.45-17.65L53.45-17.65Q53.45-18.5 53.05-19.03 52.65-19.55 52-19.55L52-19.55Q51.15-19.55 50.15-18.55L50.15-18.55 49.85-18.75Q49.8-19.55 50.2-20.65 50.6-21.75 51.5-22.78 52.4-23.8 53.85-24.5 55.3-25.2 57.3-25.2L57.3-25.2Q59.55-25.2 60.67-23.63 61.8-22.05 61.8-19.85L61.8-19.85Q61.8-19.6 61.8-19.33 61.8-19.05 61.75-18.8L61.75-18.8Q62.7-20.35 63.97-21.8 65.25-23.25 66.87-24.23 68.5-25.2 70.4-25.2L70.4-25.2Q72.85-25.2 73.8-23.63 74.75-22.05 74.75-20.05L74.75-20.05Q74.75-19.65 74.72-19.28 74.7-18.9 74.65-18.55L74.65-18.55Q75.7-20.1 76.97-21.63 78.25-23.15 79.9-24.18 81.55-25.2 83.7-25.2L83.7-25.2Q86.34-25.2 87.32-23.65 88.3-22.1 88.3-20L88.3-20Q88.3-18.15 87.85-15.78 87.4-13.4 86.95-11.1 86.5-8.8 86.5-7.2L86.5-7.2Q86.5-6.25 86.77-5.65 87.05-5.05 87.7-5.05L87.7-5.05Q88.25-5.05 88.72-5.38 89.2-5.7 89.4-6.15L89.4-6.15 89.8-6Q89.8-4.15 88.75-2.75 87.7-1.35 86.09-0.58 84.5 0.2 82.9 0.2L82.9 0.2Q80.95 0.2 79.47-1.1 78-2.4 78-5.4L78-5.4Q78-7.25 78.47-9.4 78.95-11.55 79.42-13.58 79.9-15.6 79.9-16.9L79.9-16.9Q79.9-18.75 78.6-18.75L78.6-18.75Q77.65-18.75 76.72-17.98 75.8-17.2 75.07-15.93 74.35-14.65 73.9-13.25 73.45-11.85 73.45-10.55L73.45-10.55Q73.45-9.35 73.72-7.93 74-6.5 74-5.2L74-5.2Q74-2.6 72.55-1.2 71.1 0.2 69.15 0.2L69.15 0.2Q67.35 0.2 65.92-1 64.5-2.2 64.5-4.6L64.5-4.6Q64.5-5.7 64.8-7.28 65.1-8.85 65.47-10.58 65.85-12.3 66.15-13.9 66.45-15.5 66.45-16.7L66.45-16.7Q66.45-17.65 66.17-18.2 65.9-18.75 65.1-18.75L65.1-18.75Q63.95-18.75 62.9-17.6 61.85-16.45 61.1-14.83 60.35-13.2 60.1-11.7L60.1-11.7Q60.05-11.35 60.02-11.15 60-10.95 60-10.95L60-10.95Q60-9.4 60.35-8.13 60.7-6.85 60.7-5.5L60.7-5.5Q60.7-3.05 59.22-1.43 57.75 0.2 55.85 0.2ZM110.39 0.25L110.39 0.25Q108.64 0.25 107.34-0.9 106.04-2.05 106.04-4.65L106.04-4.65Q106.04-4.9 106.04-5.15 106.04-5.4 106.09-5.65L106.09-5.65Q104.59-2.65 102.72-1.23 100.84 0.2 98.94 0.2L98.94 0.2Q97.19 0.2 95.64-1.03 94.09-2.25 93.14-4.65 92.19-7.05 92.19-10.45L92.19-10.45Q92.19-13.95 93.17-16.7 94.14-19.45 95.74-21.35 97.34-23.25 99.24-24.23 101.14-25.2 102.94-25.2L102.94-25.2Q104.94-25.2 106.54-23.98 108.14-22.75 108.74-20.1L108.74-20.1Q108.89-20.95 108.97-21.65 109.04-22.35 109.04-22.6L109.04-22.6Q109.09-23.95 110.42-24.6 111.74-25.25 113.34-25.25L113.34-25.25Q114.74-25.25 115.99-24.7 117.24-24.15 117.69-22.85L117.69-22.85 117.79-22.55Q117.19-21.2 116.59-19.3 115.99-17.4 115.49-15.33 114.99-13.25 114.69-11.28 114.39-9.3 114.39-7.8L114.39-7.8Q114.39-6.15 114.74-5.53 115.09-4.9 115.59-4.9L115.59-4.9Q116.44-4.9 117.14-6.1L117.14-6.1 117.54-5.9Q117.54-4.2 116.44-2.8 115.34-1.4 113.69-0.58 112.04 0.25 110.39 0.25ZM102.24-6.1L102.24-6.1Q103.54-6.1 105.12-8.43 106.69-10.75 107.84-15.1L107.84-15.1Q107.94-15.55 108.04-15.98 108.14-16.4 108.19-16.8L108.19-16.8Q107.39-18.65 106.52-19.43 105.64-20.2 104.79-20.2L104.79-20.2Q103.54-20.2 102.47-18.88 101.39-17.55 100.72-15.55 100.04-13.55 100.04-11.55L100.04-11.55Q100.04-8.8 100.67-7.45 101.29-6.1 102.24-6.1ZM126.24 0.15L126.24 0.15Q124.39 0.15 122.89-1.33 121.39-2.8 121.39-5.45L121.39-5.45Q121.39-6.75 121.74-8.4 122.09-10.05 122.52-11.75 122.94-13.45 123.29-14.95 123.64-16.45 123.64-17.4L123.64-17.4Q123.64-18.4 123.24-18.98 122.84-19.55 122.19-19.55L122.19-19.55Q121.34-19.55 120.34-18.55L120.34-18.55 120.04-18.75Q119.99-19.55 120.39-20.65 120.79-21.75 121.62-22.78 122.44-23.8 123.74-24.5 125.04-25.2 126.84-25.2L126.84-25.2Q129.49-25.2 130.77-23.68 132.04-22.15 132.04-19.95L132.04-19.95Q132.04-19.15 131.89-18.4L131.89-18.4Q132.94-19.95 134.49-21.53 136.04-23.1 137.92-24.15 139.79-25.2 141.79-25.2L141.79-25.2Q144.14-25.2 144.99-23.7 145.84-22.2 145.84-19.95L145.84-19.95Q145.84-17.85 145.39-15.45 144.94-13.05 144.49-10.83 144.04-8.6 144.04-7.1L144.04-7.1Q144.04-5.1 145.19-5.1L145.19-5.1Q145.79-5.1 146.24-5.48 146.69-5.85 146.84-6.2L146.84-6.2 147.19-6.05Q147.19-4.2 146.17-2.8 145.14-1.4 143.59-0.63 142.04 0.15 140.44 0.15L140.44 0.15Q138.49 0.15 136.99-1.2 135.49-2.55 135.49-5.6L135.49-5.6Q135.49-7.4 135.97-9.5 136.44-11.6 136.89-13.55 137.34-15.5 137.34-16.75L137.34-16.75Q137.34-17.5 137.07-17.93 136.79-18.35 136.09-18.35L136.09-18.35Q134.94-18.35 133.57-17.3 132.19-16.25 131.22-14.5 130.24-12.75 130.24-10.65L130.24-10.65Q130.24-9.3 130.57-8.05 130.89-6.8 130.89-5.35L130.89-5.35Q130.89-2.65 129.49-1.25 128.09 0.15 126.24 0.15ZM158.34 0.45L158.34 0.45Q155.24 0.45 153.19-0.4 151.14-1.25 150.14-2.58 149.14-3.9 149.14-5.25L149.14-5.25Q149.14-7.15 150.84-8.63 152.54-10.1 155.44-10.1L155.44-10.1Q155.44-7.55 156.09-6.03 156.74-4.5 157.76-3.85 158.79-3.2 159.74-3.2L159.74-3.2Q160.89-3.2 161.66-3.88 162.44-4.55 162.44-5.55L162.44-5.55Q162.44-6.95 160.99-8 159.54-9.05 157.24-10.35L157.24-10.35Q156.09-11.05 154.74-11.98 153.39-12.9 152.44-14.23 151.49-15.55 151.49-17.4L151.49-17.4Q151.49-19.35 152.61-20.85 153.74-22.35 155.59-23.38 157.44-24.4 159.59-24.93 161.74-25.45 163.79-25.45L163.79-25.45Q167.64-25.45 169.59-23.9 171.54-22.35 171.54-20.6L171.54-20.6Q171.54-19.1 170.04-17.9 168.54-16.7 165.44-16.7L165.44-16.7Q165.49-19.25 164.39-20.43 163.29-21.6 162.04-21.6L162.04-21.6Q161.14-21.6 160.54-21.05 159.94-20.5 159.94-19.45L159.94-19.45Q159.94-18.25 160.71-17.38 161.49-16.5 162.66-15.83 163.84-15.15 165.09-14.55L165.09-14.55Q166.79-13.75 168.29-12.85 169.79-11.95 170.74-10.8 171.69-9.65 171.69-8L171.69-8Q171.69-5.75 169.86-3.83 168.04-1.9 164.99-0.73 161.94 0.45 158.34 0.45ZM179.59 0.2L179.59 0.2Q177.44 0.2 176.14-1.25 174.84-2.7 174.84-5.2L174.84-5.2Q174.84-6.55 175.19-8.72 175.54-10.9 176.06-13.53 176.59-16.15 177.09-18.88 177.59-21.6 177.94-24.15 178.29-26.7 178.29-28.65L178.29-28.65Q178.29-31.1 177.64-32.2L177.64-32.2 177.64-32.5Q178.74-33.75 180.04-34.35 181.34-34.95 182.59-34.95L182.59-34.95Q184.49-34.95 185.84-33.6 187.19-32.25 187.19-29.55L187.19-29.55Q187.19-28.1 186.79-26 186.39-23.9 185.84-21.6 185.29-19.3 184.74-17.3L184.74-17.3Q185.69-19.15 187.26-20.98 188.84-22.8 190.86-24 192.89-25.2 195.09-25.2L195.09-25.2Q197.59-25.2 198.46-23.65 199.34-22.1 199.34-19.8L199.34-19.8Q199.34-17.7 198.89-15.33 198.44-12.95 197.99-10.78 197.54-8.6 197.54-7.15L197.54-7.15Q197.54-5.05 198.79-5.05L198.79-5.05Q199.34-5.05 199.76-5.38 200.19-5.7 200.39-6.1L200.39-6.1 200.74-5.85Q200.74-3.9 199.79-2.55 198.84-1.2 197.36-0.5 195.89 0.2 194.34 0.2L194.34 0.2Q192.29 0.2 190.64-1.18 188.99-2.55 188.99-5.65L188.99-5.65Q188.99-7.4 189.46-9.45 189.94-11.5 190.39-13.43 190.84-15.35 190.84-16.65L190.84-16.65Q190.84-18.35 189.64-18.35L189.64-18.35Q188.54-18.35 187.24-17.25 185.94-16.15 184.96-14.5 183.99-12.85 183.69-11.25L183.69-11.25Q183.59-10.85 183.59-10.3L183.59-10.3Q183.59-9.05 183.96-7.9 184.34-6.75 184.34-5.2L184.34-5.2Q184.34-2.9 183.14-1.35 181.94 0.2 179.59 0.2ZM210.03 0.2L210.03 0.2Q207.78 0.2 206.26-1.65 204.73-3.5 204.73-6.6L204.73-6.6Q204.73-8.3 205.13-10.25 205.53-12.2 205.93-13.95L205.93-13.95Q206.28-15.25 206.51-16.38 206.73-17.5 206.73-18.2L206.73-18.2Q206.73-19.1 206.36-19.5 205.98-19.9 205.48-19.9L205.48-19.9Q204.98-19.9 204.48-19.58 203.98-19.25 203.68-18.6L203.68-18.6 203.28-18.75Q203.28-20.8 204.28-22.25 205.28-23.7 206.83-24.45 208.38-25.2 209.98-25.2L209.98-25.2Q211.28-25.2 212.48-24.68 213.68-24.15 214.46-23.05 215.23-21.95 215.23-20.3L215.23-20.3Q215.23-19.3 214.96-17.9 214.68-16.5 214.33-15L214.33-15Q213.98-13.45 213.66-11.88 213.33-10.3 213.33-9.1L213.33-9.1Q213.33-8 213.68-7.3 214.03-6.6 214.73-6.6L214.73-6.6Q216.03-6.6 217.66-9 219.28-11.4 220.28-15.45L220.28-15.45Q220.48-16.25 220.63-17.15 220.78-18.05 220.78-19L220.78-19Q220.78-19.75 220.68-20.53 220.58-21.3 220.38-22.1L220.38-22.1 220.38-22.45Q221.18-23.8 222.46-24.5 223.73-25.2 225.03-25.2L225.03-25.2Q226.78-25.2 228.18-24 229.58-22.8 229.58-20.5L229.58-20.5Q229.58-19.15 229.08-17.38 228.58-15.6 227.98-13.7L227.98-13.7Q227.38-11.85 226.88-10.05 226.38-8.25 226.38-6.85L226.38-6.85Q226.38-4.8 227.83-4.8L227.83-4.8Q228.23-4.8 228.81-5.03 229.38-5.25 229.88-5.95L229.88-5.95 230.23-5.85Q230.23-4.05 229.26-2.68 228.28-1.3 226.78-0.55 225.28 0.2 223.68 0.2L223.68 0.2Q221.63 0.2 220.01-1.3 218.38-2.8 218.38-6.2L218.38-6.2 218.38-6.3Q216.33-2.8 214.13-1.3 211.93 0.2 210.03 0.2ZM265.48 0.35L265.48 0.35Q263.73 0.35 262.45-0.53 261.18-1.4 260.25-2.8 259.33-4.2 258.65-5.88 257.98-7.55 257.38-9.1L257.38-9.1Q256.48-11.6 255.73-13.48 254.98-15.35 254.08-16.65L254.08-16.65Q253.13-12.85 252.55-9.35 251.98-5.85 251.83-1.55L251.83-1.55Q250.93-0.7 249.8-0.25 248.68 0.2 247.53 0.2L247.53 0.2Q245.78 0.2 244.43-1.03 243.08-2.25 243.08-5.15L243.08-5.15Q243.08-7.15 243.68-9.65 244.28-12.15 245.15-14.8 246.03-17.45 246.93-19.95 247.83-22.45 248.43-24.48 249.03-26.5 249.03-27.7L249.03-27.7Q249.03-28.95 248.18-28.95L248.18-28.95Q247.23-28.95 245.88-27.53 244.53-26.1 243.13-23.55L243.13-23.55 242.83-23.65Q242.83-26.65 244.13-29 245.43-31.35 247.65-32.98 249.88-34.6 252.8-35.45 255.73-36.3 258.93-36.3L258.93-36.3Q263.18-36.3 265.83-34.98 268.48-33.65 269.75-31.58 271.03-29.5 271.03-27.15L271.03-27.15Q271.03-24.75 269.8-22.45 268.58-20.15 266.35-18.63 264.13-17.1 261.08-16.85L261.08-16.85Q262.13-16.05 262.88-14.83 263.63-13.6 264.43-12.05L264.43-12.05Q265.13-10.65 266.08-9.38 267.03-8.1 268.68-8.1L268.68-8.1Q269.53-8.1 270.08-8.53 270.63-8.95 271.03-9.95L271.03-9.95 271.33-9.8Q271.58-9.05 271.65-8.35 271.73-7.65 271.73-7.05L271.73-7.05Q271.73-3.9 269.98-1.78 268.23 0.35 265.48 0.35ZM256.58-21.25L256.58-21.25Q258.38-21.25 259.7-22.08 261.03-22.9 261.75-24.13 262.48-25.35 262.48-26.6L262.48-26.6Q262.48-28.15 261.3-29.33 260.13-30.5 257.48-30.5L257.48-30.5Q257.08-30.5 256.65-30.48 256.23-30.45 255.83-30.4L255.83-30.4Q255.88-30.05 255.88-29.73 255.88-29.4 255.88-29.4L255.88-29.4Q255.88-27.1 255.7-24.95 255.53-22.8 255.23-21.35L255.23-21.35Q255.58-21.3 255.9-21.28 256.23-21.25 256.58-21.25ZM293.23 0.25L293.23 0.25Q291.48 0.25 290.18-0.9 288.88-2.05 288.88-4.65L288.88-4.65Q288.88-4.9 288.88-5.15 288.88-5.4 288.93-5.65L288.93-5.65Q287.43-2.65 285.55-1.23 283.68 0.2 281.78 0.2L281.78 0.2Q280.03 0.2 278.48-1.03 276.93-2.25 275.98-4.65 275.03-7.05 275.03-10.45L275.03-10.45Q275.03-13.95 276-16.7 276.98-19.45 278.58-21.35 280.18-23.25 282.08-24.23 283.98-25.2 285.78-25.2L285.78-25.2Q287.78-25.2 289.38-23.98 290.98-22.75 291.58-20.1L291.58-20.1Q291.73-20.95 291.8-21.65 291.88-22.35 291.88-22.6L291.88-22.6Q291.93-23.95 293.25-24.6 294.58-25.25 296.18-25.25L296.18-25.25Q297.58-25.25 298.83-24.7 300.08-24.15 300.53-22.85L300.53-22.85 300.63-22.55Q300.03-21.2 299.43-19.3 298.83-17.4 298.33-15.33 297.83-13.25 297.53-11.28 297.23-9.3 297.23-7.8L297.23-7.8Q297.23-6.15 297.58-5.53 297.93-4.9 298.43-4.9L298.43-4.9Q299.28-4.9 299.98-6.1L299.98-6.1 300.38-5.9Q300.38-4.2 299.28-2.8 298.18-1.4 296.53-0.58 294.88 0.25 293.23 0.25ZM285.08-6.1L285.08-6.1Q286.38-6.1 287.95-8.43 289.53-10.75 290.68-15.1L290.68-15.1Q290.78-15.55 290.88-15.98 290.98-16.4 291.03-16.8L291.03-16.8Q290.23-18.65 289.35-19.43 288.48-20.2 287.63-20.2L287.63-20.2Q286.38-20.2 285.3-18.88 284.23-17.55 283.55-15.55 282.88-13.55 282.88-11.55L282.88-11.55Q282.88-8.8 283.5-7.45 284.13-6.1 285.08-6.1ZM309.87 0.2L309.87 0.2Q307.62 0.2 306.1-1.65 304.57-3.5 304.57-6.6L304.57-6.6Q304.57-8.3 304.97-10.25 305.37-12.2 305.77-13.95L305.77-13.95Q306.12-15.25 306.35-16.38 306.57-17.5 306.57-18.2L306.57-18.2Q306.57-19.1 306.2-19.5 305.82-19.9 305.32-19.9L305.32-19.9Q304.82-19.9 304.32-19.58 303.82-19.25 303.52-18.6L303.52-18.6 303.12-18.75Q303.12-20.8 304.12-22.25 305.12-23.7 306.67-24.45 308.22-25.2 309.82-25.2L309.82-25.2Q311.12-25.2 312.32-24.68 313.52-24.15 314.3-23.05 315.07-21.95 315.07-20.3L315.07-20.3Q315.07-19.3 314.8-17.9 314.52-16.5 314.17-15L314.17-15Q313.82-13.45 313.5-11.88 313.17-10.3 313.17-9.1L313.17-9.1Q313.17-8 313.52-7.3 313.87-6.6 314.57-6.6L314.57-6.6Q315.87-6.6 317.5-9 319.12-11.4 320.12-15.45L320.12-15.45Q320.32-16.25 320.47-17.15 320.62-18.05 320.62-19L320.62-19Q320.62-19.75 320.52-20.53 320.42-21.3 320.22-22.1L320.22-22.1 320.22-22.45Q321.02-23.8 322.3-24.5 323.57-25.2 324.87-25.2L324.87-25.2Q326.62-25.2 328.02-24 329.42-22.8 329.42-20.5L329.42-20.5Q329.42-19.15 328.92-17.38 328.42-15.6 327.82-13.7L327.82-13.7Q327.22-11.85 326.72-10.05 326.22-8.25 326.22-6.85L326.22-6.85Q326.22-4.8 327.67-4.8L327.67-4.8Q328.07-4.8 328.65-5.03 329.22-5.25 329.72-5.95L329.72-5.95 330.07-5.85Q330.07-4.05 329.1-2.68 328.12-1.3 326.62-0.55 325.12 0.2 323.52 0.2L323.52 0.2Q321.47 0.2 319.85-1.3 318.22-2.8 318.22-6.2L318.22-6.2 318.22-6.3Q316.17-2.8 313.97-1.3 311.77 0.2 309.87 0.2ZM339.77 0.2L339.77 0.2Q338.17 0.2 336.75-0.53 335.32-1.25 334.44-2.8 333.57-4.35 333.57-6.75L333.57-6.75Q333.57-8.05 333.82-10.15 334.07-12.25 334.5-14.75 334.92-17.25 335.37-19.75L335.37-19.75Q334.37-19.7 333.44-19.55 332.52-19.4 331.62-19.2L331.62-19.2 331.52-19.55Q332.52-20.75 333.62-21.6 334.72-22.45 335.92-23L335.92-23Q336.57-26.3 337.02-28.73 337.47-31.15 337.47-31.6L337.47-31.6Q337.47-32.45 338.8-33 340.12-33.55 341.77-33.55L341.77-33.55Q343.22-33.55 344.5-33 345.77-32.45 346.22-31.15L346.22-31.15Q345.92-30.85 345.37-28.93 344.82-27 344.22-24.25L344.22-24.25Q345.17-24.2 346.17-24.15 347.17-24.1 348.22-24L348.22-24Q348.32-23.7 348.37-23.35 348.42-23 348.42-22.6L348.42-22.6Q348.42-21.85 348.19-20.98 347.97-20.1 347.67-19.4L347.67-19.4Q346.47-19.5 345.42-19.63 344.37-19.75 343.37-19.8L343.37-19.8Q342.97-17.65 342.65-15.5 342.32-13.35 342.15-11.6 341.97-9.85 341.97-8.85L341.97-8.85Q341.97-6.75 342.75-6.05 343.52-5.35 344.62-5.35L344.62-5.35Q345.62-5.35 346.42-5.75 347.22-6.15 347.57-6.7L347.57-6.7 348.07-6.55Q347.77-4.5 346.47-2.98 345.17-1.45 343.37-0.63 341.57 0.2 339.77 0.2ZM361.07 0.35L361.07 0.35Q357.42 0.35 355.02-1.13 352.62-2.6 351.42-5.03 350.22-7.45 350.22-10.25L350.22-10.25Q350.22-12.9 351.24-15.58 352.27-18.25 354.24-20.45 356.22-22.65 359.04-24 361.87-25.35 365.42-25.35L365.42-25.35Q369.82-25.35 371.84-23.38 373.87-21.4 373.87-18.6L373.87-18.6Q373.87-16.2 372.59-14.18 371.32-12.15 369.22-10.93 367.12-9.7 364.62-9.7L364.62-9.7Q363.32-9.7 361.97-10.1 360.62-10.5 359.32-11.35L359.32-11.35Q359.57-8.25 361.12-6.85 362.67-5.45 364.82-5.45L364.82-5.45Q366.32-5.45 367.82-6.03 369.32-6.6 370.59-7.53 371.87-8.45 372.57-9.5L372.57-9.5 372.92-9.25Q372.92-6.65 371.84-4.83 370.77-3 369.02-1.85 367.27-0.7 365.19-0.18 363.12 0.35 361.07 0.35ZM362.22-13.15L362.22-13.15Q363.82-13.15 364.82-14.08 365.82-15 366.32-16.25 366.82-17.5 366.82-18.45L366.82-18.45Q366.82-19.6 366.17-20.38 365.52-21.15 364.37-21.15L364.37-21.15Q363.47-21.15 362.39-20.5 361.32-19.85 360.47-18.28 359.62-16.7 359.37-13.9L359.37-13.9Q360.97-13.15 362.22-13.15ZM382.06 0.2L382.06 0.2Q380.72 0.2 379.44-0.48 378.17-1.15 377.37-2.65 376.56-4.15 376.56-6.5L376.56-6.5Q376.56-8.6 377.14-11.43 377.72-14.25 378.44-17.3 379.17-20.35 379.72-23.25 380.26-26.15 380.22-28.4L380.22-28.4Q380.22-30.55 379.72-31.45L379.72-31.45 379.67-31.6Q380.22-33.2 381.62-34.1 383.01-35 384.56-35L384.56-35Q386.31-35 387.69-33.68 389.06-32.35 389.06-29.25L389.06-29.25Q389.06-27.6 388.67-25.33 388.26-23.05 387.72-20.48 387.17-17.9 386.59-15.4 386.01-12.9 385.62-10.8 385.22-8.7 385.22-7.35L385.22-7.35Q385.22-5.95 385.62-5.43 386.01-4.9 386.51-4.9L386.51-4.9Q387.06-4.9 387.56-5.33 388.06-5.75 388.22-6.1L388.22-6.1 388.62-6Q388.56-4.2 387.59-2.8 386.62-1.4 385.14-0.6 383.67 0.2 382.06 0.2ZM409.86 0.25L409.86 0.25Q408.11 0.25 406.81-0.9 405.51-2.05 405.51-4.65L405.51-4.65Q405.51-4.9 405.51-5.15 405.51-5.4 405.56-5.65L405.56-5.65Q404.06-2.65 402.19-1.23 400.31 0.2 398.41 0.2L398.41 0.2Q396.66 0.2 395.11-1.03 393.56-2.25 392.61-4.65 391.66-7.05 391.66-10.45L391.66-10.45Q391.66-13.95 392.64-16.7 393.61-19.45 395.21-21.35 396.81-23.25 398.71-24.23 400.61-25.2 402.41-25.2L402.41-25.2Q404.41-25.2 406.01-23.98 407.61-22.75 408.21-20.1L408.21-20.1Q408.36-20.95 408.44-21.65 408.51-22.35 408.51-22.6L408.51-22.6Q408.56-23.95 409.89-24.6 411.21-25.25 412.81-25.25L412.81-25.25Q414.21-25.25 415.46-24.7 416.71-24.15 417.16-22.85L417.16-22.85 417.26-22.55Q416.66-21.2 416.06-19.3 415.46-17.4 414.96-15.33 414.46-13.25 414.16-11.28 413.86-9.3 413.86-7.8L413.86-7.8Q413.86-6.15 414.21-5.53 414.56-4.9 415.06-4.9L415.06-4.9Q415.91-4.9 416.61-6.1L416.61-6.1 417.01-5.9Q417.01-4.2 415.91-2.8 414.81-1.4 413.16-0.58 411.51 0.25 409.86 0.25ZM401.71-6.1L401.71-6.1Q403.01-6.1 404.59-8.43 406.16-10.75 407.31-15.1L407.31-15.1Q407.41-15.55 407.51-15.98 407.61-16.4 407.66-16.8L407.66-16.8Q406.86-18.65 405.99-19.43 405.11-20.2 404.26-20.2L404.26-20.2Q403.01-20.2 401.94-18.88 400.86-17.55 400.19-15.55 399.51-13.55 399.51-11.55L399.51-11.55Q399.51-8.8 400.14-7.45 400.76-6.1 401.71-6.1Z" opacity="1" transform="matrix(1,0,0,1,0,0)" fill="#65ff54" class="wordmark-text-0" data-fill-palette-color="primary" id="text-0"></path></svg></g></svg></g><g transform="matrix(1,0,0,1,0,26.67184329106049)"><svg viewBox="0 0 244.43136 13.335101687821286" height="13.335101687821286" width="244.43136"><g transform="matrix(1,0,0,1,0,0)"><svg width="244.43136" viewBox="1.6 -35.7 667.2099999999999 36.400000000000006" height="13.335101687821286" data-palette-color="#65ff54"><path d="M17.9 0L14.5 0 14.5-34Q13.75-34 11.4-33.7L11.4-33.7 1.6-32.45 1.6-35 30.8-35 30.8-32.45 21-33.7Q18.65-34 17.9-34L17.9-34 17.9 0ZM59.06 0L55.66 0 55.66-35 59.06-35 59.06-18.8 80.06-18.8 80.06-35 83.46-35 83.46 0 80.06 0 80.06-17.6 59.06-17.6 59.06 0ZM128.62 0L113.22 0 113.22-35 128.47-35 128.47-32.55 119.72-33.7Q117.42-34 116.62-34L116.62-34 116.62-18.75Q117.27-18.75 119.72-18.9L119.72-18.9 127.92-19.4 127.92-17.1 119.72-17.6Q117.27-17.75 116.62-17.75L116.62-17.75 116.62-1Q117.52-1 119.77-1.3L119.77-1.3 128.62-2.45 128.62 0ZM194.23 0L186.13 0 186.13-35 193.08-35Q198.48-35 201.48-32.75 204.48-30.5 204.48-26.5L204.48-26.5Q204.48-23.55 202.73-21.48 200.98-19.4 197.83-18.65L197.83-18.65 197.83-18.35Q202.13-17.8 204.56-15.38 206.98-12.95 206.98-9.25L206.98-9.25Q206.98-4.9 203.63-2.45 200.28 0 194.23 0L194.23 0ZM193.13-33.8L193.13-33.8 189.53-33.8 189.53-18.8 193.08-18.8Q200.98-18.8 200.98-26.3L200.98-26.3Q200.98-33.8 193.13-33.8ZM194.23-17.6L194.23-17.6 189.53-17.6 189.53-1.2 194.23-1.2Q203.38-1.2 203.38-9.4L203.38-9.4Q203.38-17.6 194.23-17.6ZM233.74 0L233.74-35 237.14-35 237.14-1Q238.09-1 240.14-1.3L240.14-1.3 248.44-2.55 248.44 0 233.74 0ZM288.95 0L273.55 0 273.55-35 288.8-35 288.8-32.55 280.05-33.7Q277.75-34 276.95-34L276.95-34 276.95-18.75Q277.6-18.75 280.05-18.9L280.05-18.9 288.25-19.4 288.25-17.1 280.05-17.6Q277.6-17.75 276.95-17.75L276.95-17.75 276.95-1Q277.85-1 280.1-1.3L280.1-1.3 288.95-2.45 288.95 0ZM313.15-1.1L313.15-1.1 313.45-4.1 313.75-4.1Q315.7-2.4 318.15-1.45 320.6-0.5 323-0.5L323-0.5Q326.4-0.5 328.5-2.38 330.6-4.25 330.6-7.4L330.6-7.4Q330.6-9.15 329.83-10.65 329.05-12.15 327.28-13.7 325.5-15.25 322.4-17.05L322.4-17.05Q320.25-18.3 318.3-19.68 316.35-21.05 315.1-22.88 313.85-24.7 313.85-27.25L313.85-27.25Q313.85-31.05 316.6-33.38 319.35-35.7 323.85-35.7L323.85-35.7Q325.85-35.7 328.15-35.27 330.45-34.85 331.7-34.2L331.7-34.2 331.45-31.4 331.15-31.4Q328.3-34.5 323.85-34.5L323.85-34.5Q320.65-34.5 318.7-32.88 316.75-31.25 316.75-28.5L316.75-28.5Q316.75-26.45 317.83-24.98 318.9-23.5 320.6-22.33 322.3-21.15 324.25-20.05L324.25-20.05Q326.5-18.75 328.63-17.3 330.75-15.85 332.13-13.83 333.5-11.8 333.5-8.75L333.5-8.75Q333.5-5.95 332.2-3.83 330.9-1.7 328.53-0.5 326.15 0.7 323 0.7L323 0.7Q321 0.7 318.3 0.2 315.6-0.3 313.15-1.1ZM357.06-1.1L357.06-1.1 357.36-4.1 357.66-4.1Q359.61-2.4 362.06-1.45 364.51-0.5 366.91-0.5L366.91-0.5Q370.31-0.5 372.41-2.38 374.51-4.25 374.51-7.4L374.51-7.4Q374.51-9.15 373.74-10.65 372.96-12.15 371.19-13.7 369.41-15.25 366.31-17.05L366.31-17.05Q364.16-18.3 362.21-19.68 360.26-21.05 359.01-22.88 357.76-24.7 357.76-27.25L357.76-27.25Q357.76-31.05 360.51-33.38 363.26-35.7 367.76-35.7L367.76-35.7Q369.76-35.7 372.06-35.27 374.36-34.85 375.61-34.2L375.61-34.2 375.36-31.4 375.06-31.4Q372.21-34.5 367.76-34.5L367.76-34.5Q364.56-34.5 362.61-32.88 360.66-31.25 360.66-28.5L360.66-28.5Q360.66-26.45 361.74-24.98 362.81-23.5 364.51-22.33 366.21-21.15 368.16-20.05L368.16-20.05Q370.41-18.75 372.54-17.3 374.66-15.85 376.04-13.83 377.41-11.8 377.41-8.75L377.41-8.75Q377.41-5.95 376.11-3.83 374.81-1.7 372.44-0.5 370.06 0.7 366.91 0.7L366.91 0.7Q364.91 0.7 362.21 0.2 359.51-0.3 357.06-1.1ZM419.42 0L404.02 0 404.02-35 419.27-35 419.27-32.55 410.52-33.7Q408.22-34 407.42-34L407.42-34 407.42-18.75Q408.07-18.75 410.52-18.9L410.52-18.9 418.72-19.4 418.72-17.1 410.52-17.6Q408.07-17.75 407.42-17.75L407.42-17.75 407.42-1Q408.32-1 410.57-1.3L410.57-1.3 419.42-2.45 419.42 0ZM457.68 0L446.68 0 446.68-35 457.68-35Q463.48-35 467.78-32.8 472.08-30.6 474.48-26.68 476.88-22.75 476.88-17.5L476.88-17.5Q476.88-12.25 474.48-8.33 472.08-4.4 467.78-2.2 463.48 0 457.68 0L457.68 0ZM457.68-33.8L457.68-33.8 450.08-33.8 450.08-1.2 457.68-1.2Q464.93-1.2 469-5.5 473.08-9.8 473.08-17.5L473.08-17.5Q473.08-25.2 469-29.5 464.93-33.8 457.68-33.8ZM531.89-17.5L531.89-17.5Q531.89-21.35 533.27-24.68 534.64-28 537.12-30.48 539.59-32.95 542.92-34.33 546.24-35.7 550.09-35.7L550.09-35.7Q553.94-35.7 557.27-34.33 560.59-32.95 563.07-30.48 565.54-28 566.92-24.68 568.29-21.35 568.29-17.5L568.29-17.5Q568.29-13.65 566.92-10.33 565.54-7 563.07-4.53 560.59-2.05 557.27-0.68 553.94 0.7 550.09 0.7L550.09 0.7Q546.24 0.7 542.92-0.68 539.59-2.05 537.12-4.53 534.64-7 533.27-10.33 531.89-13.65 531.89-17.5ZM535.69-17.5L535.69-17.5Q535.69-12.4 537.49-8.58 539.29-4.75 542.54-2.63 545.79-0.5 550.09-0.5L550.09-0.5Q554.39-0.5 557.64-2.63 560.89-4.75 562.69-8.6 564.49-12.45 564.49-17.5L564.49-17.5Q564.49-22.55 562.69-26.38 560.89-30.2 557.64-32.35 554.39-34.5 550.09-34.5L550.09-34.5Q545.79-34.5 542.57-32.38 539.34-30.25 537.52-26.43 535.69-22.6 535.69-17.5ZM598.2 0L594.8 0 596.05-35.7 596.65-35.7 621.8-5.3 622.1-5.3 621-35 624.4-35 623.15 0.7 622.55 0.7 597.4-29.7 597.1-29.7 598.2 0ZM668.81 0L653.41 0 653.41-35 668.66-35 668.66-32.55 659.91-33.7Q657.61-34 656.81-34L656.81-34 656.81-18.75Q657.46-18.75 659.91-18.9L659.91-18.9 668.11-19.4 668.11-17.1 659.91-17.6Q657.46-17.75 656.81-17.75L656.81-17.75 656.81-1Q657.71-1 659.96-1.3L659.96-1.3 668.81-2.45 668.81 0Z" opacity="1" transform="matrix(1,0,0,1,0,0)" fill="#65ff54" class="slogan-text-1" data-fill-palette-color="secondary" id="text-1"></path></svg></g></svg></g></svg></g></svg></g><g></g></svg></g></svg></g></svg></g><g><path d="M78.149 98.503A122.216 122.216 0 0 1 317.371 98.503L315.425 98.503A120.27 120.27 0 0 0 80.095 98.503L78.149 98.503M78.149 148.697A122.216 122.216 0 0 0 317.371 148.697L315.425 148.697A120.27 120.27 0 0 1 80.095 148.697L78.149 148.697" fill="#65ff54" stroke="transparent" data-fill-palette-color="tertiary"></path></g></svg></g><defs></defs></svg><rect width="395.52" height="247.2" fill="none" stroke="none" visibility="hidden"></rect></g></svg></g></svg>